<?xml version="1.0" encoding="UTF-8"?>
<!DOCTYPE svg PUBLIC "-//W3C//DTD SVG 1.1//EN" "http://www.w3.org/Graphics/SVG/1.1/DTD/svg11.dtd">
<svg xmlns="http://www.w3.org/2000/svg" version="1.1" width="512px" height="512px" style="shape-rendering:geometricPrecision; text-rendering:geometricPrecision; image-rendering:optimizeQuality; fill-rule:evenodd; clip-rule:evenodd" xmlns:xlink="http://www.w3.org/1999/xlink">
<g><path style="opacity:0.955" fill="#6cecdd" d="M 255.5,89.5 C 255.5,99.8333 255.5,110.167 255.5,120.5C 236.07,120.899 217.904,125.899 201,135.5C 189.482,130.663 177.649,126.83 165.5,124C 191.103,101.404 221.103,89.9043 255.5,89.5 Z"/></g>
<g><path style="opacity:0.962" fill="#29d4bf" d="M 255.5,89.5 C 309.439,91.5351 349.606,115.868 376,162.5C 383.36,177.745 388.193,193.745 390.5,210.5C 436.136,206.737 471.636,223.737 497,261.5C 504.349,274.056 509.182,287.389 511.5,301.5C 511.5,311.167 511.5,320.833 511.5,330.5C 503.992,372.314 480.326,400.814 440.5,416C 395.276,428.699 356.776,417.866 325,383.5C 301.192,348.872 278.026,313.872 255.5,278.5C 255.5,260.167 255.5,241.833 255.5,223.5C 286.412,270.262 317.578,316.929 349,363.5C 372.799,389.195 401.299,396.361 434.5,385C 470.301,367.57 485.134,339.07 479,299.5C 469.767,266.602 448.267,247.435 414.5,242C 405.39,241.132 396.39,241.799 387.5,244C 377.964,247.679 368.298,250.845 358.5,253.5C 366.713,205.592 351.713,167.092 313.5,138C 295.856,126.619 276.523,120.786 255.5,120.5C 255.5,110.167 255.5,99.8333 255.5,89.5 Z"/></g>
<g><path style="opacity:0.961" fill="#6cecdd" d="M 255.5,223.5 C 255.5,241.833 255.5,260.167 255.5,278.5C 243.109,260.739 230.942,242.739 219,224.5C 185.318,183.951 143.485,172.451 93.5,190C 45.5357,214.086 25.0357,252.92 32,306.5C 41.8852,346.051 66.0519,372.551 104.5,386C 139.105,395.279 170.772,389.279 199.5,368C 215.682,352.317 232.015,336.817 248.5,321.5C 254.195,329.363 259.695,337.363 265,345.5C 265.667,346.5 265.667,347.5 265,348.5C 252.196,360.304 239.696,372.47 227.5,385C 188.026,419.115 143.026,429.115 92.5,415C 39.737,395.411 8.737,357.911 -0.5,302.5C -0.5,291.5 -0.5,280.5 -0.5,269.5C 7.63431,218.861 34.9676,182.694 81.5,161C 134.221,141.565 182.221,149.565 225.5,185C 237.243,196.564 247.243,209.397 255.5,223.5 Z"/></g>
</svg>
