<?xml version="1.0" encoding="UTF-8"?>
<!DOCTYPE svg PUBLIC "-//W3C//DTD SVG 1.1//EN" "http://www.w3.org/Graphics/SVG/1.1/DTD/svg11.dtd">
<svg xmlns="http://www.w3.org/2000/svg" version="1.1" width="512px" height="512px" style="shape-rendering:geometricPrecision; text-rendering:geometricPrecision; image-rendering:optimizeQuality; fill-rule:evenodd; clip-rule:evenodd" xmlns:xlink="http://www.w3.org/1999/xlink">
<g><path style="opacity:0.989" fill="#26b582" d="M 356.5,64.5 C 360.858,63.1557 364.858,63.989 368.5,67C 384.833,76.5 401.167,86 417.5,95.5C 418.705,96.5769 419.372,97.9102 419.5,99.5C 414.167,105.5 408.5,111.167 402.5,116.5C 342.143,82.2359 281.977,47.5692 222,12.5C 221.722,13.4158 221.222,14.0825 220.5,14.5C 220.5,12.5 220.5,10.5 220.5,8.5C 243.833,8.5 267.167,8.5 290.5,8.5C 290.5,20.1667 290.5,31.8333 290.5,43.5C 312.798,47.4321 333.298,55.7654 352,68.5C 353.371,66.9586 354.871,65.6253 356.5,64.5 Z"/></g>
<g><path style="opacity:0.994" fill="#2eb781" d="M 402.5,116.5 C 402.389,117.117 402.056,117.617 401.5,118C 405.159,123.154 408.159,128.654 410.5,134.5C 409.279,135.465 407.946,135.298 406.5,134C 345.33,98.2474 283.997,62.7474 222.5,27.5C 221.824,26.3984 221.158,25.3984 220.5,24.5C 220.5,21.1667 220.5,17.8333 220.5,14.5C 221.222,14.0825 221.722,13.4158 222,12.5C 281.977,47.5692 342.143,82.2359 402.5,116.5 Z"/></g>
<g><path style="opacity:0.997" fill="#39ba80" d="M 220.5,24.5 C 221.158,25.3984 221.824,26.3984 222.5,27.5C 283.997,62.7474 345.33,98.2474 406.5,134C 407.946,135.298 409.279,135.465 410.5,134.5C 417.7,146.919 422.7,160.252 425.5,174.5C 353.562,133.862 281.895,92.6958 210.5,51C 207.794,49.0924 204.794,48.259 201.5,48.5C 207.468,45.8508 213.802,44.1841 220.5,43.5C 220.5,37.1667 220.5,30.8333 220.5,24.5 Z"/></g>
<g><path style="opacity:0.99" fill="#43bc7e" d="M 201.5,48.5 C 204.794,48.259 207.794,49.0924 210.5,51C 281.895,92.6958 353.562,133.862 425.5,174.5C 426.301,176.042 426.634,177.708 426.5,179.5C 438.167,179.5 449.833,179.5 461.5,179.5C 461.831,187.86 461.498,196.193 460.5,204.5C 455.961,200.932 450.795,199.265 445,199.5C 436.132,200.64 427.299,201.974 418.5,203.5C 418.611,202.883 418.944,202.383 419.5,202C 396.33,188.247 372.997,174.747 349.5,161.5C 348.893,161.624 348.56,161.957 348.5,162.5C 327.166,127.489 295.833,109.489 254.5,108.5C 254.611,107.883 254.944,107.383 255.5,107C 228.108,91.6446 201.108,75.8113 174.5,59.5C 182.945,54.463 191.945,50.7964 201.5,48.5 Z"/></g>
<g><path style="opacity:0.986" fill="#1bb284" d="M 419.5,99.5 C 419.372,97.9102 418.705,96.5769 417.5,95.5C 401.167,86 384.833,76.5 368.5,67C 364.858,63.989 360.858,63.1557 356.5,64.5C 362.837,56.9859 369.837,50.4859 377.5,45C 393.333,60.8333 409.167,76.6667 425,92.5C 424.228,95.4644 422.395,97.7977 419.5,99.5 Z"/></g>
<g><path style="opacity:0.988" fill="#4ebf7d" d="M 174.5,59.5 C 201.108,75.8113 228.108,91.6446 255.5,107C 254.944,107.383 254.611,107.883 254.5,108.5C 245.356,108.302 236.356,109.302 227.5,111.5C 194.89,91.8551 161.89,72.6884 128.5,54C 127.748,53.3292 127.414,52.4959 127.5,51.5C 129.528,48.2809 132.195,46.1143 135.5,45C 143.333,52.8333 151.167,60.6667 159,68.5C 164.054,65.2728 169.221,62.2728 174.5,59.5 Z"/></g>
<g><path style="opacity:0.996" fill="#58c27b" d="M 127.5,51.5 C 127.414,52.4959 127.748,53.3292 128.5,54C 161.89,72.6884 194.89,91.8551 227.5,111.5C 218.858,114.318 210.525,117.984 202.5,122.5C 171.505,105.004 140.838,87.0044 110.5,68.5C 115.833,62.5 121.5,56.8333 127.5,51.5 Z"/></g>
<g><path style="opacity:0.995" fill="#64c57a" d="M 110.5,68.5 C 140.838,87.0044 171.505,105.004 202.5,122.5C 193.784,127.527 185.784,133.527 178.5,140.5C 149.167,123.167 119.833,105.833 90.5,88.5C 96.8333,81.5 103.5,74.8333 110.5,68.5 Z"/></g>
<g><path style="opacity:0.996" fill="#6ec778" d="M 90.5,88.5 C 119.833,105.833 149.167,123.167 178.5,140.5C 173.469,147.19 168.469,153.857 163.5,160.5C 145.861,150.345 128.194,140.178 110.5,130C 108.308,128.933 106.642,127.433 105.5,125.5C 106.172,122.658 107.506,120.158 109.5,118C 101.667,110.167 93.8333,102.333 86,94.5C 86.4265,91.8793 87.9265,89.8793 90.5,88.5 Z"/></g>
<g><path style="opacity:0.991" fill="#7aca77" d="M 105.5,125.5 C 106.642,127.433 108.308,128.933 110.5,130C 128.194,140.178 145.861,150.345 163.5,160.5C 161.07,166.357 158.403,172.023 155.5,177.5C 136.034,165.596 116.367,153.93 96.5,142.5C 98.7396,136.35 101.74,130.684 105.5,125.5 Z"/></g>
<g><path style="opacity:0.992" fill="#85cd75" d="M 96.5,142.5 C 116.367,153.93 136.034,165.596 155.5,177.5C 153.363,184.381 151.697,191.381 150.5,198.5C 129.833,186.833 109.167,175.167 88.5,163.5C 90.3693,156.112 93.036,149.112 96.5,142.5 Z"/></g>
<g><path style="opacity:0.99" fill="#4ebf7d" d="M 418.5,203.5 C 411.032,205.529 403.365,207.196 395.5,208.5C 383.367,200.93 371.034,193.596 358.5,186.5C 355.759,178.339 352.425,170.339 348.5,162.5C 348.56,161.957 348.893,161.624 349.5,161.5C 372.997,174.747 396.33,188.247 419.5,202C 418.944,202.383 418.611,202.883 418.5,203.5 Z"/></g>
<g><path style="opacity:0.981" fill="#90d074" d="M 88.5,163.5 C 109.167,175.167 129.833,186.833 150.5,198.5C 149.629,206.8 149.295,215.133 149.5,223.5C 143.158,223.666 136.825,223.5 130.5,223C 127.56,215.891 122.56,211.058 115.5,208.5C 100.396,199.108 85.0622,189.941 69.5,181C 70.4158,180.722 71.0825,180.222 71.5,179.5C 75.8333,179.5 80.1667,179.5 84.5,179.5C 85.2112,173.989 86.5445,168.655 88.5,163.5 Z"/></g>
<g><path style="opacity:0.956" fill="#99d272" d="M 71.5,179.5 C 71.0825,180.222 70.4158,180.722 69.5,181C 85.0622,189.941 100.396,199.108 115.5,208.5C 99.0838,205.05 82.5838,202.05 66,199.5C 60.2054,199.265 55.0388,200.932 50.5,204.5C 49.5021,196.193 49.1688,187.86 49.5,179.5C 56.8333,179.5 64.1667,179.5 71.5,179.5 Z"/></g>
<g><path style="opacity:0.967" fill="#5ac27b" d="M 358.5,186.5 C 371.034,193.596 383.367,200.93 395.5,208.5C 384.061,213.374 378.727,222.041 379.5,234.5C 372.971,236.216 366.305,237.216 359.5,237.5C 362.358,220.437 362.025,203.437 358.5,186.5 Z"/></g>
<g><path style="opacity:0.989" fill="#a4d571" d="M 113.5,251.5 C 94.383,241.44 75.383,231.107 56.5,220.5C 58.2267,215.965 61.56,213.965 66.5,214.5C 82.3101,216.962 97.9768,220.129 113.5,224C 115.487,226.14 116.82,228.64 117.5,231.5C 116.036,238.154 114.703,244.82 113.5,251.5 Z"/></g>
<g><path style="opacity:0.997" fill="#77c977" d="M 393.5,305.5 C 391.806,306.686 390.139,306.519 388.5,305C 340.104,276.807 291.77,248.64 243.5,220.5C 250.155,214.059 258.155,211.559 267.5,213C 272.828,214.163 277.828,216.163 282.5,219C 310.895,245.076 344.229,255.576 382.5,250.5C 385.788,268.939 389.454,287.272 393.5,305.5 Z"/></g>
<g><path style="opacity:0.988" fill="#52c07c" d="M 461.5,256.5 C 441.167,245.669 421.167,234.336 401.5,222.5C 414.166,220.067 426.833,217.567 439.5,215C 443.625,214.146 447.625,214.48 451.5,216C 452.701,216.903 453.535,218.069 454,219.5C 456.44,231.865 458.94,244.199 461.5,256.5 Z"/></g>
<g><path style="opacity:0.997" fill="#80cc76" d="M 243.5,220.5 C 291.77,248.64 340.104,276.807 388.5,305C 390.139,306.519 391.806,306.686 393.5,305.5C 394.578,312.556 395.911,319.556 397.5,326.5C 341.996,294.58 286.329,262.914 230.5,231.5C 234.515,227.487 238.848,223.821 243.5,220.5 Z"/></g>
<g><path style="opacity:0.997" fill="#87cd75" d="M 230.5,231.5 C 286.329,262.914 341.996,294.58 397.5,326.5C 398.583,332.914 399.916,339.248 401.5,345.5C 340.312,311.291 279.645,276.291 219.5,240.5C 222.871,237.129 226.537,234.129 230.5,231.5 Z"/></g>
<g><path style="opacity:0.991" fill="#b0d76f" d="M 56.5,220.5 C 75.383,231.107 94.383,241.44 113.5,251.5C 111.624,260.883 109.624,270.216 107.5,279.5C 88.5817,269.706 69.915,259.372 51.5,248.5C 53.1667,239.167 54.8333,229.833 56.5,220.5 Z"/></g>
<g><path style="opacity:0.99" fill="#5ec37a" d="M 401.5,222.5 C 421.167,234.336 441.167,245.669 461.5,256.5C 463.757,267.453 465.757,278.453 467.5,289.5C 443.926,276.594 420.593,263.261 397.5,249.5C 396.046,243.568 394.713,237.568 393.5,231.5C 394.073,226.596 396.74,223.596 401.5,222.5 Z"/></g>
<g><path style="opacity:0.973" fill="#98d173" d="M 140.5,238.5 C 159.503,238.333 178.503,238.5 197.5,239C 189.94,245.403 182.273,251.57 174.5,257.5C 162.556,252.196 151.223,245.863 140.5,238.5 Z"/></g>
<g><path style="opacity:0.997" fill="#8dcf74" d="M 219.5,240.5 C 279.645,276.291 340.312,311.291 401.5,345.5C 402.296,350.147 402.963,354.814 403.5,359.5C 338.968,322.404 274.634,285.071 210.5,247.5C 213.19,244.815 216.19,242.482 219.5,240.5 Z"/></g>
<g><path style="opacity:0.991" fill="#a3d471" d="M 140.5,238.5 C 151.223,245.863 162.556,252.196 174.5,257.5C 168.69,263.452 164.69,270.452 162.5,278.5C 161.85,278.804 161.183,279.137 160.5,279.5C 149.112,273.142 137.779,266.809 126.5,260.5C 128.184,253.582 129.684,246.582 131,239.5C 134.057,238.549 137.223,238.216 140.5,238.5 Z"/></g>
<g><path style="opacity:0.991" fill="#bcda6e" d="M 51.5,248.5 C 69.915,259.372 88.5817,269.706 107.5,279.5C 106.089,288.223 104.422,296.889 102.5,305.5C 83.5817,295.706 64.915,285.372 46.5,274.5C 47.6589,265.707 49.3256,257.04 51.5,248.5 Z"/></g>
<g><path style="opacity:0.993" fill="#6bc679" d="M 397.5,249.5 C 420.593,263.261 443.926,276.594 467.5,289.5C 470.451,300.923 472.785,312.59 474.5,324.5C 474.565,324.938 474.399,325.272 474,325.5C 451.186,311.512 428.02,298.179 404.5,285.5C 401.911,273.556 399.578,261.556 397.5,249.5 Z"/></g>
<g><path style="opacity:0.988" fill="#b0d76f" d="M 126.5,260.5 C 137.779,266.809 149.112,273.142 160.5,279.5C 161.183,279.137 161.85,278.804 162.5,278.5C 163.229,290.077 165.229,301.41 168.5,312.5C 167.849,313.091 167.182,313.757 166.5,314.5C 151.309,306.074 136.309,297.408 121.5,288.5C 123.167,279.167 124.833,269.833 126.5,260.5 Z"/></g>
<g><path style="opacity:0.989" fill="#a3d471" d="M 187.5,267.5 C 189.308,267.491 190.975,267.991 192.5,269C 205.059,276.444 217.726,283.61 230.5,290.5C 229.74,300.375 228.406,310.042 226.5,319.5C 226.586,318.504 226.252,317.671 225.5,317C 209.779,308.143 194.112,299.309 178.5,290.5C 175.162,280.196 178.162,272.53 187.5,267.5 Z"/></g>
<g><path style="opacity:0.984" fill="#93d073" d="M 210.5,247.5 C 274.634,285.071 338.968,322.404 403.5,359.5C 405.07,364.998 406.403,370.665 407.5,376.5C 379.194,360.012 350.861,343.512 322.5,327C 320.35,325.589 318.016,324.755 315.5,324.5C 306.73,315.228 297.73,306.062 288.5,297C 280.675,290.918 272.342,285.585 263.5,281C 255.807,277.07 247.807,276.07 239.5,278C 234.343,280.651 231.343,284.818 230.5,290.5C 217.726,283.61 205.059,276.444 192.5,269C 190.975,267.991 189.308,267.491 187.5,267.5C 194.939,260.607 202.606,253.941 210.5,247.5 Z"/></g>
<g><path style="opacity:0.988" fill="#c8dd6c" d="M 46.5,274.5 C 64.915,285.372 83.5817,295.706 102.5,305.5C 100.751,315.247 98.7507,324.914 96.5,334.5C 77.8333,323.833 59.1667,313.167 40.5,302.5C 42.1379,292.969 44.1379,283.636 46.5,274.5 Z"/></g>
<g><path style="opacity:0.989" fill="#73c877" d="M 404.5,285.5 C 428.02,298.179 451.186,311.512 474,325.5C 474.399,325.272 474.565,324.938 474.5,324.5C 476.196,330.3 477.529,336.3 478.5,342.5C 454.633,328.737 430.966,314.737 407.5,300.5C 406.373,295.531 405.373,290.531 404.5,285.5 Z"/></g>
<g><path style="opacity:0.988" fill="#9ed372" d="M 334.5,365.5 C 304.031,348.431 273.698,331.098 243.5,313.5C 243.771,306.121 244.438,298.788 245.5,291.5C 248.607,291.351 251.607,291.851 254.5,293C 261.324,295.909 267.658,299.576 273.5,304C 294.703,323.703 315.036,344.203 334.5,365.5 Z"/></g>
<g><path style="opacity:0.988" fill="#7aca77" d="M 407.5,300.5 C 430.966,314.737 454.633,328.737 478.5,342.5C 480.218,349.756 481.551,357.09 482.5,364.5C 482.565,364.938 482.399,365.272 482,365.5C 459.186,351.512 436.02,338.179 412.5,325.5C 410.706,317.198 409.04,308.865 407.5,300.5 Z"/></g>
<g><path style="opacity:0.987" fill="#bcdb6e" d="M 121.5,288.5 C 136.309,297.408 151.309,306.074 166.5,314.5C 167.182,313.757 167.849,313.091 168.5,312.5C 170.835,324.504 173.168,336.504 175.5,348.5C 155.662,337.416 135.995,326.083 116.5,314.5C 117.659,305.707 119.326,297.04 121.5,288.5 Z"/></g>
<g><path style="opacity:0.985" fill="#afd76f" d="M 178.5,290.5 C 194.112,299.309 209.779,308.143 225.5,317C 226.252,317.671 226.586,318.504 226.5,319.5C 225.673,328.65 222.673,336.984 217.5,344.5C 208.025,338.593 198.359,332.926 188.5,327.5C 187.702,327.957 187.369,328.624 187.5,329.5C 184.371,316.643 181.371,303.643 178.5,290.5 Z"/></g>
<g><path style="opacity:0.987" fill="#d4e16a" d="M 40.5,302.5 C 59.1667,313.167 77.8333,323.833 96.5,334.5C 94.9617,343.525 93.295,352.525 91.5,361.5C 72.8333,350.5 54.1667,339.5 35.5,328.5C 36.9113,319.777 38.5779,311.111 40.5,302.5 Z"/></g>
<g><path style="opacity:0.986" fill="#9ad272" d="M 315.5,324.5 C 318.016,324.755 320.35,325.589 322.5,327C 350.861,343.512 379.194,360.012 407.5,376.5C 409.185,383.085 410.019,389.751 410,396.5C 406.5,400 403,403.5 399.5,407C 398.5,407.667 397.5,407.667 396.5,407C 369.66,379.327 342.66,351.827 315.5,324.5 Z"/></g>
<g><path style="opacity:0.99" fill="#a8d571" d="M 243.5,313.5 C 273.698,331.098 304.031,348.431 334.5,365.5C 351.5,381.833 368.167,398.5 384.5,415.5C 337.058,388.61 289.725,361.443 242.5,334C 241.552,333.517 240.552,333.351 239.5,333.5C 240.967,326.833 242.3,320.166 243.5,313.5 Z"/></g>
<g><path style="opacity:0.982" fill="#b9da6e" d="M 217.5,344.5 C 211.476,352.842 203.476,358.176 193.5,360.5C 191.5,350.167 189.5,339.833 187.5,329.5C 187.369,328.624 187.702,327.957 188.5,327.5C 198.359,332.926 208.025,338.593 217.5,344.5 Z"/></g>
<g><path style="opacity:0.989" fill="#c9de6c" d="M 116.5,314.5 C 135.995,326.083 155.662,337.416 175.5,348.5C 177.712,357.027 179.878,365.694 182,374.5C 183.509,376.881 185.675,377.881 188.5,377.5C 191.913,377.146 195.246,376.479 198.5,375.5C 198.953,376.458 199.619,377.292 200.5,378C 212.688,384.73 224.688,391.563 236.5,398.5C 233.851,400.559 233.018,403.225 234,406.5C 237.336,410.668 240.836,414.668 244.5,418.5C 244.44,419.043 244.107,419.376 243.5,419.5C 199.275,393.89 154.941,368.557 110.5,343.5C 112.01,333.611 114.01,323.944 116.5,314.5 Z"/></g>
<g><path style="opacity:0.99" fill="#87cd75" d="M 412.5,325.5 C 436.02,338.179 459.186,351.512 482,365.5C 482.399,365.272 482.565,364.938 482.5,364.5C 485.465,373.845 486.965,383.511 487,393.5C 483.221,397.831 478.388,399.831 472.5,399.5C 455.635,389.568 438.635,379.902 421.5,370.5C 418.373,355.531 415.373,340.531 412.5,325.5 Z"/></g>
<g><path style="opacity:0.989" fill="#e2e469" d="M 35.5,328.5 C 54.1667,339.5 72.8333,350.5 91.5,361.5C 89.5111,370.433 87.8444,379.433 86.5,388.5C 67.694,378.844 49.194,368.51 31,357.5C 30.6174,358.056 30.1174,358.389 29.5,358.5C 31.1211,348.395 33.1211,338.395 35.5,328.5 Z"/></g>
<g><path style="opacity:0.993" fill="#b8da6e" d="M 231.5,352.5 C 245.699,360.766 260.032,368.766 274.5,376.5C 286.167,387.5 297.5,398.833 308.5,410.5C 280.562,395.196 252.896,379.363 225.5,363C 224.552,362.517 223.552,362.351 222.5,362.5C 225.529,359.141 228.529,355.808 231.5,352.5 Z"/></g>
<g><path style="opacity:0.996" fill="#d4e06b" d="M 110.5,343.5 C 154.941,368.557 199.275,393.89 243.5,419.5C 244.107,419.376 244.44,419.043 244.5,418.5C 262.885,435.884 280.552,453.884 297.5,472.5C 233.671,436.42 170.004,400.086 106.5,363.5C 107.454,356.728 108.788,350.061 110.5,343.5 Z"/></g>
<g><path style="opacity:0.993" fill="#bedb6d" d="M 222.5,362.5 C 223.552,362.351 224.552,362.517 225.5,363C 252.896,379.363 280.562,395.196 308.5,410.5C 320.167,421.5 331.5,432.833 342.5,444.5C 299.934,420.858 257.268,396.524 214.5,371.5C 213.614,370.675 213.281,369.675 213.5,368.5C 216.5,366.5 219.5,364.5 222.5,362.5 Z"/></g>
<g><path style="opacity:0.987" fill="#b1d86f" d="M 239.5,333.5 C 240.552,333.351 241.552,333.517 242.5,334C 289.725,361.443 337.058,388.61 384.5,415.5C 394.122,422.43 395.955,431.096 390,441.5C 383.818,448.443 376.318,450.276 367.5,447C 340.528,421.028 313.861,394.695 287.5,368C 280.915,363.704 276.248,365.204 273.5,372.5C 274.246,373.736 274.579,375.07 274.5,376.5C 260.032,368.766 245.699,360.766 231.5,352.5C 234.942,346.51 237.609,340.177 239.5,333.5 Z"/></g>
<g><path style="opacity:0.993" fill="#dde369" d="M 106.5,363.5 C 170.004,400.086 233.671,436.42 297.5,472.5C 302.647,479.532 302.814,486.866 298,494.5C 291.189,501.262 283.356,502.762 274.5,499C 250.861,476.362 227.528,453.362 204.5,430C 199.771,427.693 196.104,428.86 193.5,433.5C 163.315,417.156 133.481,400.156 104,382.5C 103.722,383.416 103.222,384.082 102.5,384.5C 103.326,377.374 104.659,370.374 106.5,363.5 Z"/></g>
<g><path style="opacity:0.989" fill="#c4dd6c" d="M 213.5,368.5 C 213.281,369.675 213.614,370.675 214.5,371.5C 257.268,396.524 299.934,420.858 342.5,444.5C 347.164,448.331 351.33,452.664 355,457.5C 356.461,460.679 357.295,464.012 357.5,467.5C 325.777,450.468 294.444,432.635 263.5,414C 262.563,413.308 261.897,413.475 261.5,414.5C 255.702,409.203 250.035,403.703 244.5,398C 241.837,396.408 239.171,396.574 236.5,398.5C 224.688,391.563 212.688,384.73 200.5,378C 199.619,377.292 198.953,376.458 198.5,375.5C 203.651,373.424 208.651,371.09 213.5,368.5 Z"/></g>
<g><path style="opacity:0.98" fill="#94d173" d="M 421.5,370.5 C 438.635,379.902 455.635,389.568 472.5,399.5C 459.151,403.133 445.484,405.3 431.5,406C 429.19,404.363 427.69,402.196 427,399.5C 424.971,389.856 423.138,380.19 421.5,370.5 Z"/></g>
<g><path style="opacity:0.982" fill="#efe766" d="M 86.5,388.5 C 85.4023,393.147 84.2356,397.813 83,402.5C 79.3398,406.367 74.8398,407.534 69.5,406C 54.9898,403.472 40.6565,400.306 26.5,396.5C 24.1536,394.763 23.1536,392.43 23.5,389.5C 24.9946,379.028 26.9946,368.695 29.5,358.5C 30.1174,358.389 30.6174,358.056 31,357.5C 49.194,368.51 67.694,378.844 86.5,388.5 Z"/></g>
<g><path style="opacity:0.989" fill="#e4e468" d="M 193.5,433.5 C 193.062,436.893 193.895,439.893 196,442.5C 202.703,449.035 209.203,455.702 215.5,462.5C 215.103,463.525 214.437,463.692 213.5,463C 176.399,441.143 139.399,419.976 102.5,399.5C 100.978,398.809 99.9778,397.642 99.5,396C 100.327,391.993 101.327,388.16 102.5,384.5C 103.222,384.082 103.722,383.416 104,382.5C 133.481,400.156 163.315,417.156 193.5,433.5 Z"/></g>
<g><path style="opacity:0.976" fill="#eae667" d="M 215.5,462.5 C 219.798,466.296 223.964,470.296 228,474.5C 229.904,477.923 230.737,481.59 230.5,485.5C 229.883,485.611 229.383,485.944 229,486.5C 198.48,468.348 167.98,451.015 137.5,434.5C 125.5,423.167 113.833,411.5 102.5,399.5C 139.399,419.976 176.399,441.143 213.5,463C 214.437,463.692 215.103,463.525 215.5,462.5 Z"/></g>
<g><path style="opacity:0.984" fill="#cadf6b" d="M 357.5,467.5 C 353.872,483.149 344.538,487.982 329.5,482C 306.327,459.993 283.66,437.493 261.5,414.5C 261.897,413.475 262.563,413.308 263.5,414C 294.444,432.635 325.777,450.468 357.5,467.5 Z"/></g>
<g><path style="opacity:0.979" fill="#f1e866" d="M 230.5,485.5 C 229.049,495.95 223.049,501.617 212.5,502.5C 208.55,502.239 204.883,501.072 201.5,499C 179.965,477.632 158.632,456.132 137.5,434.5C 167.98,451.015 198.48,468.348 229,486.5C 229.383,485.944 229.883,485.611 230.5,485.5 Z"/></g>
</svg>
