<?xml version="1.0" standalone="no"?>
<!DOCTYPE svg PUBLIC "-//W3C//DTD SVG 20010904//EN"
 "http://www.w3.org/TR/2001/REC-SVG-20010904/DTD/svg10.dtd">
<svg version="1.0" xmlns="http://www.w3.org/2000/svg"
 width="512.000000pt" height="512.000000pt" viewBox="0 0 512.000000 512.000000"
 preserveAspectRatio="xMidYMid meet">

<g transform="translate(0.000000,512.000000) scale(0.100000,-0.100000)"
fill="#000000" stroke="none">
<path d="M2031 5109 c-143 -29 -280 -105 -371 -207 -58 -65 -133 -209 -149
-290 -7 -31 -11 -178 -11 -357 l0 -303 31 -31 31 -31 444 0 444 0 0 -135 0
-135 -945 0 c-639 0 -961 -4 -997 -11 -82 -17 -225 -91 -292 -151 -77 -68
-149 -179 -183 -282 l-28 -81 0 -535 0 -535 28 -81 c34 -103 106 -214 183
-282 67 -60 210 -134 292 -151 31 -7 178 -11 357 -11 l303 0 31 31 c17 17 31
36 31 42 0 7 5 63 11 126 23 251 122 468 294 650 113 119 214 189 365 254 174
74 209 79 645 87 384 7 391 7 478 33 157 48 262 113 373 229 112 118 177 241
209 394 12 60 15 175 15 643 0 370 -4 589 -11 623 -17 82 -91 225 -151 292
-68 77 -179 149 -282 183 l-81 28 -510 2 c-280 1 -530 -3 -554 -8z m1030 -219
c181 -34 317 -187 341 -381 5 -46 8 -295 6 -587 l-4 -507 -27 -81 c-62 -187
-210 -335 -397 -396 -60 -20 -94 -22 -445 -28 -406 -7 -442 -11 -620 -67 -306
-97 -594 -340 -748 -631 -59 -113 -113 -273 -134 -401 l-16 -101 -176 0 c-97
1 -206 5 -243 9 -182 24 -335 165 -368 340 -13 71 -13 931 0 1002 33 175 186
316 368 340 37 4 502 8 1034 9 l968 0 32 29 33 29 0 285 0 285 -24 26 c-14 14
-41 30 -60 36 -21 6 -208 10 -453 10 l-418 0 0 173 c1 218 10 290 49 373 53
112 175 210 291 233 64 13 945 13 1011 1z"/>
<path d="M2067 4534 c-71 -71 -26 -184 73 -184 39 0 51 5 76 31 23 24 29 39
29 74 0 35 -6 50 -29 74 -25 26 -37 31 -77 31 -37 0 -52 -5 -72 -26z"/>
<path d="M3921 3589 c-17 -17 -31 -36 -31 -42 0 -7 -5 -63 -11 -126 -23 -251
-122 -468 -294 -650 -113 -119 -214 -189 -365 -254 -174 -74 -209 -79 -645
-87 -384 -7 -391 -7 -478 -33 -157 -48 -262 -113 -373 -229 -112 -118 -177
-241 -209 -394 -12 -60 -15 -175 -15 -643 0 -370 4 -589 11 -623 17 -82 91
-225 151 -292 68 -77 179 -149 282 -183 l81 -28 535 0 535 0 82 28 c101 34
215 108 283 185 58 65 133 209 149 290 7 31 11 178 11 357 l0 303 -31 31 -31
31 -444 0 -444 0 0 135 0 135 945 0 c639 0 961 4 997 11 82 17 225 91 292 151
77 68 149 179 183 282 l28 81 0 535 0 535 -28 81 c-34 103 -106 214 -183 282
-67 60 -210 134 -292 151 -31 7 -178 11 -357 11 l-303 0 -31 -31z m607 -189
c172 -24 314 -150 357 -315 22 -88 22 -962 0 -1050 -43 -165 -185 -291 -357
-315 -35 -5 -501 -10 -1035 -10 l-973 0 -32 -29 -33 -29 0 -286 0 -286 28 -27
27 -28 448 -5 447 -5 3 -174 c1 -96 -2 -206 -7 -243 -24 -177 -149 -319 -316
-363 -88 -22 -962 -22 -1050 0 -169 44 -292 186 -316 366 -6 43 -9 277 -6 588
3 429 6 525 19 568 63 209 196 348 408 426 50 18 88 21 435 27 209 4 408 13
442 19 120 22 239 62 358 121 398 197 661 568 720 1013 l6 47 182 0 c100 0
210 -5 245 -10z"/>
<path d="M2909 721 c-23 -24 -29 -38 -29 -74 0 -37 6 -51 31 -76 25 -25 39
-31 74 -31 35 0 49 6 74 31 25 25 31 39 31 74 0 35 -6 49 -31 74 -25 25 -39
31 -76 31 -36 0 -50 -6 -74 -29z"/>
</g>
</svg>
